<mxfile host="app.diagrams.net" agent="Mozilla/5.0 (X11; Ubuntu; Linux x86_64; rv:132.0) Gecko/20100101 Firefox/132.0" version="24.8.8">
  <diagram name="Page-1" id="c7558073-3199-34d8-9f00-42111426c3f3">
    <mxGraphModel dx="510" dy="318" grid="1" gridSize="10" guides="1" tooltips="1" connect="1" arrows="1" fold="1" page="1" pageScale="1" pageWidth="826" pageHeight="1169" background="none" math="0" shadow="0">
      <root>
        <mxCell id="0" />
        <mxCell id="1" parent="0" />
        <mxCell id="1ZXFjyELfXG3e7dKKIdV-100" value="Entry" style="swimlane;fontStyle=0;childLayout=stackLayout;horizontal=1;startSize=20;fillColor=#ffe6cc;horizontalStack=0;resizeParent=1;resizeParentMax=0;resizeLast=0;collapsible=0;marginBottom=0;swimlaneFillColor=#ffffff;strokeColor=#d79b00;" vertex="1" parent="1">
          <mxGeometry x="1060" y="30" width="100" height="50" as="geometry" />
        </mxCell>
        <mxCell id="1ZXFjyELfXG3e7dKKIdV-101" value="Exit" style="swimlane;fontStyle=0;childLayout=stackLayout;horizontal=1;startSize=20;fillColor=#ffe6cc;horizontalStack=0;resizeParent=1;resizeParentMax=0;resizeLast=0;collapsible=0;marginBottom=0;swimlaneFillColor=#ffffff;strokeColor=#d79b00;" vertex="1" parent="1">
          <mxGeometry x="1189" y="30" width="100" height="50" as="geometry" />
        </mxCell>
        <mxCell id="1ZXFjyELfXG3e7dKKIdV-102" value="Infraction" style="swimlane;fontStyle=0;childLayout=stackLayout;horizontal=1;startSize=20;fillColor=#fff2cc;horizontalStack=0;resizeParent=1;resizeParentMax=0;resizeLast=0;collapsible=0;marginBottom=0;swimlaneFillColor=#ffffff;strokeColor=#d6b656;" vertex="1" parent="1">
          <mxGeometry x="1320" y="490" width="100" height="50" as="geometry" />
        </mxCell>
        <mxCell id="1ZXFjyELfXG3e7dKKIdV-103" value="Statistics" style="swimlane;fontStyle=0;childLayout=stackLayout;horizontal=1;startSize=20;fillColor=#ffe6cc;horizontalStack=0;resizeParent=1;resizeParentMax=0;resizeLast=0;collapsible=0;marginBottom=0;swimlaneFillColor=#ffffff;strokeColor=#d79b00;" vertex="1" parent="1">
          <mxGeometry x="930" y="30" width="100" height="50" as="geometry" />
        </mxCell>
        <mxCell id="1ZXFjyELfXG3e7dKKIdV-104" value="Permit" style="swimlane;fontStyle=0;childLayout=stackLayout;horizontal=1;startSize=20;fillColor=#fff2cc;horizontalStack=0;resizeParent=1;resizeParentMax=0;resizeLast=0;collapsible=0;marginBottom=0;swimlaneFillColor=#ffffff;strokeColor=#d6b656;" vertex="1" parent="1">
          <mxGeometry x="1060" y="490" width="100" height="50" as="geometry" />
        </mxCell>
        <mxCell id="1ZXFjyELfXG3e7dKKIdV-105" value="Visitor" style="swimlane;fontStyle=0;childLayout=stackLayout;horizontal=1;startSize=20;fillColor=#fff2cc;horizontalStack=0;resizeParent=1;resizeParentMax=0;resizeLast=0;collapsible=0;marginBottom=0;swimlaneFillColor=#ffffff;strokeColor=#d6b656;" vertex="1" parent="1">
          <mxGeometry x="1189" y="490" width="100" height="50" as="geometry" />
        </mxCell>
        <mxCell id="1ZXFjyELfXG3e7dKKIdV-106" value="Accounting" style="swimlane;fontStyle=0;childLayout=stackLayout;horizontal=1;startSize=20;fillColor=#fff2cc;horizontalStack=0;resizeParent=1;resizeParentMax=0;resizeLast=0;collapsible=0;marginBottom=0;swimlaneFillColor=#ffffff;strokeColor=#d6b656;" vertex="1" parent="1">
          <mxGeometry x="930" y="490" width="100" height="50" as="geometry" />
        </mxCell>
        <mxCell id="1ZXFjyELfXG3e7dKKIdV-107" value="Web" style="swimlane;fontStyle=0;childLayout=stackLayout;horizontal=1;startSize=20;fillColor=#ffe6cc;horizontalStack=0;resizeParent=1;resizeParentMax=0;resizeLast=0;collapsible=0;marginBottom=0;swimlaneFillColor=#ffffff;strokeColor=#d79b00;" vertex="1" parent="1">
          <mxGeometry x="1320" y="30" width="100" height="50" as="geometry" />
        </mxCell>
        <mxCell id="1ZXFjyELfXG3e7dKKIdV-108" value="University Auth" style="swimlane;fontStyle=0;childLayout=stackLayout;horizontal=1;startSize=20;fillColor=#f8cecc;horizontalStack=0;resizeParent=1;resizeParentMax=0;resizeLast=0;collapsible=0;marginBottom=0;swimlaneFillColor=#ffffff;strokeColor=#b85450;" vertex="1" parent="1">
          <mxGeometry x="1520" y="190" width="100" height="50" as="geometry" />
        </mxCell>
        <mxCell id="1ZXFjyELfXG3e7dKKIdV-109" value="University Payroll" style="swimlane;fontStyle=0;childLayout=stackLayout;horizontal=1;startSize=20;fillColor=#f8cecc;horizontalStack=0;resizeParent=1;resizeParentMax=0;resizeLast=0;collapsible=0;marginBottom=0;swimlaneFillColor=#ffffff;strokeColor=#b85450;" vertex="1" parent="1">
          <mxGeometry x="1520" y="265" width="100" height="50" as="geometry" />
        </mxCell>
        <mxCell id="1ZXFjyELfXG3e7dKKIdV-110" value="Payment Processor" style="swimlane;fontStyle=0;childLayout=stackLayout;horizontal=1;startSize=20;fillColor=#f8cecc;horizontalStack=0;resizeParent=1;resizeParentMax=0;resizeLast=0;collapsible=0;marginBottom=0;swimlaneFillColor=#ffffff;strokeColor=#b85450;" vertex="1" parent="1">
          <mxGeometry x="1520" y="340" width="100" height="50" as="geometry" />
        </mxCell>
        <mxCell id="1ZXFjyELfXG3e7dKKIdV-111" value="Entry Gate" style="swimlane;fontStyle=0;childLayout=stackLayout;horizontal=1;startSize=20;fillColor=#e1d5e7;horizontalStack=0;resizeParent=1;resizeParentMax=0;resizeLast=0;collapsible=0;marginBottom=0;swimlaneFillColor=#ffffff;shadow=0;strokeColor=#9673a6;" vertex="1" parent="1">
          <mxGeometry x="790" y="190" width="100" height="50" as="geometry" />
        </mxCell>
        <mxCell id="1ZXFjyELfXG3e7dKKIdV-112" value="Exit Gate" style="swimlane;fontStyle=0;childLayout=stackLayout;horizontal=1;startSize=20;fillColor=#e1d5e7;horizontalStack=0;resizeParent=1;resizeParentMax=0;resizeLast=0;collapsible=0;marginBottom=0;swimlaneFillColor=#ffffff;strokeColor=#9673a6;" vertex="1" parent="1">
          <mxGeometry x="790" y="340" width="100" height="50" as="geometry" />
        </mxCell>
        <mxCell id="1ZXFjyELfXG3e7dKKIdV-113" value="RabbitMQ AMQP" style="html=1;dashed=0;whiteSpace=wrap;shape=mxgraph.dfd.loop;fillColor=#d5e8d4;strokeColor=#82b366;" vertex="1" parent="1">
          <mxGeometry x="950" y="240" width="480" height="100" as="geometry" />
        </mxCell>
        <mxCell id="1ZXFjyELfXG3e7dKKIdV-117" style="edgeStyle=orthogonalEdgeStyle;rounded=0;orthogonalLoop=1;jettySize=auto;html=1;exitX=0.75;exitY=1;exitDx=0;exitDy=0;entryX=0.015;entryY=0.228;entryDx=0;entryDy=0;entryPerimeter=0;" edge="1" parent="1" source="1ZXFjyELfXG3e7dKKIdV-111" target="1ZXFjyELfXG3e7dKKIdV-113">
          <mxGeometry relative="1" as="geometry" />
        </mxCell>
      </root>
    </mxGraphModel>
  </diagram>
</mxfile>
